<?xml version="1.0" encoding="utf-8" standalone="no"?>
<!DOCTYPE svg PUBLIC "-//W3C//DTD SVG 1.1//EN"
  "http://www.w3.org/Graphics/SVG/1.1/DTD/svg11.dtd">
<svg xmlns:xlink="http://www.w3.org/1999/xlink" width="504pt" height="360pt" viewBox="0 0 504 360" xmlns="http://www.w3.org/2000/svg" version="1.1">
 <metadata>
  <rdf:RDF xmlns:dc="http://purl.org/dc/elements/1.1/" xmlns:cc="http://creativecommons.org/ns#" xmlns:rdf="http://www.w3.org/1999/02/22-rdf-syntax-ns#">
   <cc:Work>
    <dc:type rdf:resource="http://purl.org/dc/dcmitype/StillImage"/>
    <dc:date>2026-03-31T01:50:01.414547</dc:date>
    <dc:format>image/svg+xml</dc:format>
    <dc:creator>
     <cc:Agent>
      <dc:title>Matplotlib v3.10.8, https://matplotlib.org/</dc:title>
     </cc:Agent>
    </dc:creator>
   </cc:Work>
  </rdf:RDF>
 </metadata>
 <defs>
  <style type="text/css">*{stroke-linejoin: round; stroke-linecap: butt}</style>
 </defs>
 <g id="figure_1">
  <g id="patch_1">
   <path d="M 0 360 
L 504 360 
L 504 0 
L 0 0 
z
" style="fill: #ffffff"/>
  </g>
  <g id="axes_1">
   <g id="patch_2">
    <path d="M 63 320.4 
L 453.6 320.4 
L 453.6 43.2 
L 63 43.2 
z
" style="fill: #eaeaf2"/>
   </g>
   <g id="matplotlib.axis_1">
    <g id="xtick_1">
     <g id="line2d_1">
      <path d="M 80.754545 320.4 
L 80.754545 43.2 
" clip-path="url(#pad0f795708)" style="fill: none; stroke: #ffffff; stroke-linecap: round"/>
     </g>
     <g id="text_1">
      <!-- 0 -->
      <g style="fill: #262626" transform="translate(77.25517 338.258281) scale(0.11 -0.11)">
       <defs>
        <path id="DejaVuSans-30" d="M 2034 4250 
Q 1547 4250 1301 3770 
Q 1056 3291 1056 2328 
Q 1056 1369 1301 889 
Q 1547 409 2034 409 
Q 2525 409 2770 889 
Q 3016 1369 3016 2328 
Q 3016 3291 2770 3770 
Q 2525 4250 2034 4250 
z
M 2034 4750 
Q 2819 4750 3233 4129 
Q 3647 3509 3647 2328 
Q 3647 1150 3233 529 
Q 2819 -91 2034 -91 
Q 1250 -91 836 529 
Q 422 1150 422 2328 
Q 422 3509 836 4129 
Q 1250 4750 2034 4750 
z
" transform="scale(0.015625)"/>
       </defs>
       <use xlink:href="#DejaVuSans-30"/>
      </g>
     </g>
    </g>
    <g id="xtick_2">
     <g id="line2d_2">
      <path d="M 142.554423 320.4 
L 142.554423 43.2 
" clip-path="url(#pad0f795708)" style="fill: none; stroke: #ffffff; stroke-linecap: round"/>
     </g>
     <g id="text_2">
      <!-- 1 -->
      <g style="fill: #262626" transform="translate(139.055048 338.258281) scale(0.11 -0.11)">
       <defs>
        <path id="DejaVuSans-31" d="M 794 531 
L 1825 531 
L 1825 4091 
L 703 3866 
L 703 4441 
L 1819 4666 
L 2450 4666 
L 2450 531 
L 3481 531 
L 3481 0 
L 794 0 
L 794 531 
z
" transform="scale(0.015625)"/>
       </defs>
       <use xlink:href="#DejaVuSans-31"/>
      </g>
     </g>
    </g>
    <g id="xtick_3">
     <g id="line2d_3">
      <path d="M 204.3543 320.4 
L 204.3543 43.2 
" clip-path="url(#pad0f795708)" style="fill: none; stroke: #ffffff; stroke-linecap: round"/>
     </g>
     <g id="text_3">
      <!-- 2 -->
      <g style="fill: #262626" transform="translate(200.854925 338.258281) scale(0.11 -0.11)">
       <defs>
        <path id="DejaVuSans-32" d="M 1228 531 
L 3431 531 
L 3431 0 
L 469 0 
L 469 531 
Q 828 903 1448 1529 
Q 2069 2156 2228 2338 
Q 2531 2678 2651 2914 
Q 2772 3150 2772 3378 
Q 2772 3750 2511 3984 
Q 2250 4219 1831 4219 
Q 1534 4219 1204 4116 
Q 875 4013 500 3803 
L 500 4441 
Q 881 4594 1212 4672 
Q 1544 4750 1819 4750 
Q 2544 4750 2975 4387 
Q 3406 4025 3406 3419 
Q 3406 3131 3298 2873 
Q 3191 2616 2906 2266 
Q 2828 2175 2409 1742 
Q 1991 1309 1228 531 
z
" transform="scale(0.015625)"/>
       </defs>
       <use xlink:href="#DejaVuSans-32"/>
      </g>
     </g>
    </g>
    <g id="xtick_4">
     <g id="line2d_4">
      <path d="M 266.154177 320.4 
L 266.154177 43.2 
" clip-path="url(#pad0f795708)" style="fill: none; stroke: #ffffff; stroke-linecap: round"/>
     </g>
     <g id="text_4">
      <!-- 3 -->
      <g style="fill: #262626" transform="translate(262.654802 338.258281) scale(0.11 -0.11)">
       <defs>
        <path id="DejaVuSans-33" d="M 2597 2516 
Q 3050 2419 3304 2112 
Q 3559 1806 3559 1356 
Q 3559 666 3084 287 
Q 2609 -91 1734 -91 
Q 1441 -91 1130 -33 
Q 819 25 488 141 
L 488 750 
Q 750 597 1062 519 
Q 1375 441 1716 441 
Q 2309 441 2620 675 
Q 2931 909 2931 1356 
Q 2931 1769 2642 2001 
Q 2353 2234 1838 2234 
L 1294 2234 
L 1294 2753 
L 1863 2753 
Q 2328 2753 2575 2939 
Q 2822 3125 2822 3475 
Q 2822 3834 2567 4026 
Q 2313 4219 1838 4219 
Q 1578 4219 1281 4162 
Q 984 4106 628 3988 
L 628 4550 
Q 988 4650 1302 4700 
Q 1616 4750 1894 4750 
Q 2613 4750 3031 4423 
Q 3450 4097 3450 3541 
Q 3450 3153 3228 2886 
Q 3006 2619 2597 2516 
z
" transform="scale(0.015625)"/>
       </defs>
       <use xlink:href="#DejaVuSans-33"/>
      </g>
     </g>
    </g>
    <g id="xtick_5">
     <g id="line2d_5">
      <path d="M 327.954055 320.4 
L 327.954055 43.2 
" clip-path="url(#pad0f795708)" style="fill: none; stroke: #ffffff; stroke-linecap: round"/>
     </g>
     <g id="text_5">
      <!-- 4 -->
      <g style="fill: #262626" transform="translate(324.45468 338.258281) scale(0.11 -0.11)">
       <defs>
        <path id="DejaVuSans-34" d="M 2419 4116 
L 825 1625 
L 2419 1625 
L 2419 4116 
z
M 2253 4666 
L 3047 4666 
L 3047 1625 
L 3713 1625 
L 3713 1100 
L 3047 1100 
L 3047 0 
L 2419 0 
L 2419 1100 
L 313 1100 
L 313 1709 
L 2253 4666 
z
" transform="scale(0.015625)"/>
       </defs>
       <use xlink:href="#DejaVuSans-34"/>
      </g>
     </g>
    </g>
    <g id="xtick_6">
     <g id="line2d_6">
      <path d="M 389.753932 320.4 
L 389.753932 43.2 
" clip-path="url(#pad0f795708)" style="fill: none; stroke: #ffffff; stroke-linecap: round"/>
     </g>
     <g id="text_6">
      <!-- 5 -->
      <g style="fill: #262626" transform="translate(386.254557 338.258281) scale(0.11 -0.11)">
       <defs>
        <path id="DejaVuSans-35" d="M 691 4666 
L 3169 4666 
L 3169 4134 
L 1269 4134 
L 1269 2991 
Q 1406 3038 1543 3061 
Q 1681 3084 1819 3084 
Q 2600 3084 3056 2656 
Q 3513 2228 3513 1497 
Q 3513 744 3044 326 
Q 2575 -91 1722 -91 
Q 1428 -91 1123 -41 
Q 819 9 494 109 
L 494 744 
Q 775 591 1075 516 
Q 1375 441 1709 441 
Q 2250 441 2565 725 
Q 2881 1009 2881 1497 
Q 2881 1984 2565 2268 
Q 2250 2553 1709 2553 
Q 1456 2553 1204 2497 
Q 953 2441 691 2322 
L 691 4666 
z
" transform="scale(0.015625)"/>
       </defs>
       <use xlink:href="#DejaVuSans-35"/>
      </g>
     </g>
    </g>
    <g id="xtick_7">
     <g id="line2d_7">
      <path d="M 451.553809 320.4 
L 451.553809 43.2 
" clip-path="url(#pad0f795708)" style="fill: none; stroke: #ffffff; stroke-linecap: round"/>
     </g>
     <g id="text_7">
      <!-- 6 -->
      <g style="fill: #262626" transform="translate(448.054434 338.258281) scale(0.11 -0.11)">
       <defs>
        <path id="DejaVuSans-36" d="M 2113 2584 
Q 1688 2584 1439 2293 
Q 1191 2003 1191 1497 
Q 1191 994 1439 701 
Q 1688 409 2113 409 
Q 2538 409 2786 701 
Q 3034 994 3034 1497 
Q 3034 2003 2786 2293 
Q 2538 2584 2113 2584 
z
M 3366 4563 
L 3366 3988 
Q 3128 4100 2886 4159 
Q 2644 4219 2406 4219 
Q 1781 4219 1451 3797 
Q 1122 3375 1075 2522 
Q 1259 2794 1537 2939 
Q 1816 3084 2150 3084 
Q 2853 3084 3261 2657 
Q 3669 2231 3669 1497 
Q 3669 778 3244 343 
Q 2819 -91 2113 -91 
Q 1303 -91 875 529 
Q 447 1150 447 2328 
Q 447 3434 972 4092 
Q 1497 4750 2381 4750 
Q 2619 4750 2861 4703 
Q 3103 4656 3366 4563 
z
" transform="scale(0.015625)"/>
       </defs>
       <use xlink:href="#DejaVuSans-36"/>
      </g>
     </g>
    </g>
    <g id="text_8">
     <!-- Empirical : $\eta$ -->
     <g style="fill: #262626" transform="translate(220.74 353.665937) scale(0.12 -0.12)">
      <defs>
       <path id="DejaVuSans-45" d="M 628 4666 
L 3578 4666 
L 3578 4134 
L 1259 4134 
L 1259 2753 
L 3481 2753 
L 3481 2222 
L 1259 2222 
L 1259 531 
L 3634 531 
L 3634 0 
L 628 0 
L 628 4666 
z
" transform="scale(0.015625)"/>
       <path id="DejaVuSans-6d" d="M 3328 2828 
Q 3544 3216 3844 3400 
Q 4144 3584 4550 3584 
Q 5097 3584 5394 3201 
Q 5691 2819 5691 2113 
L 5691 0 
L 5113 0 
L 5113 2094 
Q 5113 2597 4934 2840 
Q 4756 3084 4391 3084 
Q 3944 3084 3684 2787 
Q 3425 2491 3425 1978 
L 3425 0 
L 2847 0 
L 2847 2094 
Q 2847 2600 2669 2842 
Q 2491 3084 2119 3084 
Q 1678 3084 1418 2786 
Q 1159 2488 1159 1978 
L 1159 0 
L 581 0 
L 581 3500 
L 1159 3500 
L 1159 2956 
Q 1356 3278 1631 3431 
Q 1906 3584 2284 3584 
Q 2666 3584 2933 3390 
Q 3200 3197 3328 2828 
z
" transform="scale(0.015625)"/>
       <path id="DejaVuSans-70" d="M 1159 525 
L 1159 -1331 
L 581 -1331 
L 581 3500 
L 1159 3500 
L 1159 2969 
Q 1341 3281 1617 3432 
Q 1894 3584 2278 3584 
Q 2916 3584 3314 3078 
Q 3713 2572 3713 1747 
Q 3713 922 3314 415 
Q 2916 -91 2278 -91 
Q 1894 -91 1617 61 
Q 1341 213 1159 525 
z
M 3116 1747 
Q 3116 2381 2855 2742 
Q 2594 3103 2138 3103 
Q 1681 3103 1420 2742 
Q 1159 2381 1159 1747 
Q 1159 1113 1420 752 
Q 1681 391 2138 391 
Q 2594 391 2855 752 
Q 3116 1113 3116 1747 
z
" transform="scale(0.015625)"/>
       <path id="DejaVuSans-69" d="M 603 3500 
L 1178 3500 
L 1178 0 
L 603 0 
L 603 3500 
z
M 603 4863 
L 1178 4863 
L 1178 4134 
L 603 4134 
L 603 4863 
z
" transform="scale(0.015625)"/>
       <path id="DejaVuSans-72" d="M 2631 2963 
Q 2534 3019 2420 3045 
Q 2306 3072 2169 3072 
Q 1681 3072 1420 2755 
Q 1159 2438 1159 1844 
L 1159 0 
L 581 0 
L 581 3500 
L 1159 3500 
L 1159 2956 
Q 1341 3275 1631 3429 
Q 1922 3584 2338 3584 
Q 2397 3584 2469 3576 
Q 2541 3569 2628 3553 
L 2631 2963 
z
" transform="scale(0.015625)"/>
       <path id="DejaVuSans-63" d="M 3122 3366 
L 3122 2828 
Q 2878 2963 2633 3030 
Q 2388 3097 2138 3097 
Q 1578 3097 1268 2742 
Q 959 2388 959 1747 
Q 959 1106 1268 751 
Q 1578 397 2138 397 
Q 2388 397 2633 464 
Q 2878 531 3122 666 
L 3122 134 
Q 2881 22 2623 -34 
Q 2366 -91 2075 -91 
Q 1284 -91 818 406 
Q 353 903 353 1747 
Q 353 2603 823 3093 
Q 1294 3584 2113 3584 
Q 2378 3584 2631 3529 
Q 2884 3475 3122 3366 
z
" transform="scale(0.015625)"/>
       <path id="DejaVuSans-61" d="M 2194 1759 
Q 1497 1759 1228 1600 
Q 959 1441 959 1056 
Q 959 750 1161 570 
Q 1363 391 1709 391 
Q 2188 391 2477 730 
Q 2766 1069 2766 1631 
L 2766 1759 
L 2194 1759 
z
M 3341 1997 
L 3341 0 
L 2766 0 
L 2766 531 
Q 2569 213 2275 61 
Q 1981 -91 1556 -91 
Q 1019 -91 701 211 
Q 384 513 384 1019 
Q 384 1609 779 1909 
Q 1175 2209 1959 2209 
L 2766 2209 
L 2766 2266 
Q 2766 2663 2505 2880 
Q 2244 3097 1772 3097 
Q 1472 3097 1187 3025 
Q 903 2953 641 2809 
L 641 3341 
Q 956 3463 1253 3523 
Q 1550 3584 1831 3584 
Q 2591 3584 2966 3190 
Q 3341 2797 3341 1997 
z
" transform="scale(0.015625)"/>
       <path id="DejaVuSans-6c" d="M 603 4863 
L 1178 4863 
L 1178 0 
L 603 0 
L 603 4863 
z
" transform="scale(0.015625)"/>
       <path id="DejaVuSans-20" transform="scale(0.015625)"/>
       <path id="DejaVuSans-3a" d="M 750 794 
L 1409 794 
L 1409 0 
L 750 0 
L 750 794 
z
M 750 3309 
L 1409 3309 
L 1409 2516 
L 750 2516 
L 750 3309 
z
" transform="scale(0.015625)"/>
       <path id="DejaVuSans-Oblique-3b7" d="M 3703 2113 
L 3034 -1331 
L 2459 -1331 
L 3125 2094 
Q 3222 2591 3075 2838 
Q 2931 3084 2544 3084 
Q 2078 3084 1750 2788 
Q 1425 2491 1325 1978 
L 941 0 
L 363 0 
L 1044 3500 
L 1622 3500 
L 1516 2956 
Q 1781 3272 2094 3428 
Q 2403 3584 2769 3584 
Q 3372 3584 3609 3213 
Q 3844 2838 3703 2113 
z
" transform="scale(0.015625)"/>
      </defs>
      <use xlink:href="#DejaVuSans-45" transform="translate(0 0.015625)"/>
      <use xlink:href="#DejaVuSans-6d" transform="translate(63.183594 0.015625)"/>
      <use xlink:href="#DejaVuSans-70" transform="translate(160.595703 0.015625)"/>
      <use xlink:href="#DejaVuSans-69" transform="translate(224.072266 0.015625)"/>
      <use xlink:href="#DejaVuSans-72" transform="translate(251.855469 0.015625)"/>
      <use xlink:href="#DejaVuSans-69" transform="translate(292.96875 0.015625)"/>
      <use xlink:href="#DejaVuSans-63" transform="translate(320.751953 0.015625)"/>
      <use xlink:href="#DejaVuSans-61" transform="translate(375.732422 0.015625)"/>
      <use xlink:href="#DejaVuSans-6c" transform="translate(437.011719 0.015625)"/>
      <use xlink:href="#DejaVuSans-20" transform="translate(464.794922 0.015625)"/>
      <use xlink:href="#DejaVuSans-3a" transform="translate(496.582031 0.015625)"/>
      <use xlink:href="#DejaVuSans-20" transform="translate(530.273438 0.015625)"/>
      <use xlink:href="#DejaVuSans-Oblique-3b7" transform="translate(562.060547 0.015625)"/>
     </g>
    </g>
   </g>
   <g id="matplotlib.axis_2">
    <g id="ytick_1">
     <g id="line2d_8">
      <path d="M 63 307.8 
L 453.6 307.8 
" clip-path="url(#pad0f795708)" style="fill: none; stroke: #ffffff; stroke-linecap: round"/>
     </g>
     <g id="text_9">
      <!-- 0 -->
      <g style="fill: #262626" transform="translate(46.50125 311.979141) scale(0.11 -0.11)">
       <use xlink:href="#DejaVuSans-30"/>
      </g>
     </g>
    </g>
    <g id="ytick_2">
     <g id="line2d_9">
      <path d="M 63 264.676171 
L 453.6 264.676171 
" clip-path="url(#pad0f795708)" style="fill: none; stroke: #ffffff; stroke-linecap: round"/>
     </g>
     <g id="text_10">
      <!-- 1 -->
      <g style="fill: #262626" transform="translate(46.50125 268.855312) scale(0.11 -0.11)">
       <use xlink:href="#DejaVuSans-31"/>
      </g>
     </g>
    </g>
    <g id="ytick_3">
     <g id="line2d_10">
      <path d="M 63 221.552342 
L 453.6 221.552342 
" clip-path="url(#pad0f795708)" style="fill: none; stroke: #ffffff; stroke-linecap: round"/>
     </g>
     <g id="text_11">
      <!-- 2 -->
      <g style="fill: #262626" transform="translate(46.50125 225.731482) scale(0.11 -0.11)">
       <use xlink:href="#DejaVuSans-32"/>
      </g>
     </g>
    </g>
    <g id="ytick_4">
     <g id="line2d_11">
      <path d="M 63 178.428513 
L 453.6 178.428513 
" clip-path="url(#pad0f795708)" style="fill: none; stroke: #ffffff; stroke-linecap: round"/>
     </g>
     <g id="text_12">
      <!-- 3 -->
      <g style="fill: #262626" transform="translate(46.50125 182.607653) scale(0.11 -0.11)">
       <use xlink:href="#DejaVuSans-33"/>
      </g>
     </g>
    </g>
    <g id="ytick_5">
     <g id="line2d_12">
      <path d="M 63 135.304684 
L 453.6 135.304684 
" clip-path="url(#pad0f795708)" style="fill: none; stroke: #ffffff; stroke-linecap: round"/>
     </g>
     <g id="text_13">
      <!-- 4 -->
      <g style="fill: #262626" transform="translate(46.50125 139.483824) scale(0.11 -0.11)">
       <use xlink:href="#DejaVuSans-34"/>
      </g>
     </g>
    </g>
    <g id="ytick_6">
     <g id="line2d_13">
      <path d="M 63 92.180855 
L 453.6 92.180855 
" clip-path="url(#pad0f795708)" style="fill: none; stroke: #ffffff; stroke-linecap: round"/>
     </g>
     <g id="text_14">
      <!-- 5 -->
      <g style="fill: #262626" transform="translate(46.50125 96.359995) scale(0.11 -0.11)">
       <use xlink:href="#DejaVuSans-35"/>
      </g>
     </g>
    </g>
    <g id="ytick_7">
     <g id="line2d_14">
      <path d="M 63 49.057025 
L 453.6 49.057025 
" clip-path="url(#pad0f795708)" style="fill: none; stroke: #ffffff; stroke-linecap: round"/>
     </g>
     <g id="text_15">
      <!-- 6 -->
      <g style="fill: #262626" transform="translate(46.50125 53.236166) scale(0.11 -0.11)">
       <use xlink:href="#DejaVuSans-36"/>
      </g>
     </g>
    </g>
    <g id="text_16">
     <!-- Model : $\eta$ -->
     <g style="fill: #262626" transform="translate(39.98125 209.46) rotate(-90) scale(0.12 -0.12)">
      <defs>
       <path id="DejaVuSans-4d" d="M 628 4666 
L 1569 4666 
L 2759 1491 
L 3956 4666 
L 4897 4666 
L 4897 0 
L 4281 0 
L 4281 4097 
L 3078 897 
L 2444 897 
L 1241 4097 
L 1241 0 
L 628 0 
L 628 4666 
z
" transform="scale(0.015625)"/>
       <path id="DejaVuSans-6f" d="M 1959 3097 
Q 1497 3097 1228 2736 
Q 959 2375 959 1747 
Q 959 1119 1226 758 
Q 1494 397 1959 397 
Q 2419 397 2687 759 
Q 2956 1122 2956 1747 
Q 2956 2369 2687 2733 
Q 2419 3097 1959 3097 
z
M 1959 3584 
Q 2709 3584 3137 3096 
Q 3566 2609 3566 1747 
Q 3566 888 3137 398 
Q 2709 -91 1959 -91 
Q 1206 -91 779 398 
Q 353 888 353 1747 
Q 353 2609 779 3096 
Q 1206 3584 1959 3584 
z
" transform="scale(0.015625)"/>
       <path id="DejaVuSans-64" d="M 2906 2969 
L 2906 4863 
L 3481 4863 
L 3481 0 
L 2906 0 
L 2906 525 
Q 2725 213 2448 61 
Q 2172 -91 1784 -91 
Q 1150 -91 751 415 
Q 353 922 353 1747 
Q 353 2572 751 3078 
Q 1150 3584 1784 3584 
Q 2172 3584 2448 3432 
Q 2725 3281 2906 2969 
z
M 947 1747 
Q 947 1113 1208 752 
Q 1469 391 1925 391 
Q 2381 391 2643 752 
Q 2906 1113 2906 1747 
Q 2906 2381 2643 2742 
Q 2381 3103 1925 3103 
Q 1469 3103 1208 2742 
Q 947 2381 947 1747 
z
" transform="scale(0.015625)"/>
       <path id="DejaVuSans-65" d="M 3597 1894 
L 3597 1613 
L 953 1613 
Q 991 1019 1311 708 
Q 1631 397 2203 397 
Q 2534 397 2845 478 
Q 3156 559 3463 722 
L 3463 178 
Q 3153 47 2828 -22 
Q 2503 -91 2169 -91 
Q 1331 -91 842 396 
Q 353 884 353 1716 
Q 353 2575 817 3079 
Q 1281 3584 2069 3584 
Q 2775 3584 3186 3129 
Q 3597 2675 3597 1894 
z
M 3022 2063 
Q 3016 2534 2758 2815 
Q 2500 3097 2075 3097 
Q 1594 3097 1305 2825 
Q 1016 2553 972 2059 
L 3022 2063 
z
" transform="scale(0.015625)"/>
      </defs>
      <use xlink:href="#DejaVuSans-4d" transform="translate(0 0.015625)"/>
      <use xlink:href="#DejaVuSans-6f" transform="translate(86.279297 0.015625)"/>
      <use xlink:href="#DejaVuSans-64" transform="translate(147.460938 0.015625)"/>
      <use xlink:href="#DejaVuSans-65" transform="translate(210.9375 0.015625)"/>
      <use xlink:href="#DejaVuSans-6c" transform="translate(272.460938 0.015625)"/>
      <use xlink:href="#DejaVuSans-20" transform="translate(300.244141 0.015625)"/>
      <use xlink:href="#DejaVuSans-3a" transform="translate(332.03125 0.015625)"/>
      <use xlink:href="#DejaVuSans-20" transform="translate(365.722656 0.015625)"/>
      <use xlink:href="#DejaVuSans-Oblique-3b7" transform="translate(397.509766 0.015625)"/>
     </g>
    </g>
   </g>
   <g id="line2d_15">
    <path d="M 63 320.189086 
L 453.6 47.629198 
" clip-path="url(#pad0f795708)" style="fill: none; stroke-dasharray: 9.6,2.4,1.5,2.4; stroke-dashoffset: 0; stroke: #808080; stroke-width: 1.5"/>
   </g>
   <g id="patch_3">
    <path d="M 63 320.4 
L 63 43.2 
" style="fill: none; stroke: #ffffff; stroke-width: 1.25; stroke-linejoin: miter; stroke-linecap: square"/>
   </g>
   <g id="patch_4">
    <path d="M 453.6 320.4 
L 453.6 43.2 
" style="fill: none; stroke: #ffffff; stroke-width: 1.25; stroke-linejoin: miter; stroke-linecap: square"/>
   </g>
   <g id="patch_5">
    <path d="M 63 320.4 
L 453.6 320.4 
" style="fill: none; stroke: #ffffff; stroke-width: 1.25; stroke-linejoin: miter; stroke-linecap: square"/>
   </g>
   <g id="patch_6">
    <path d="M 63 43.2 
L 453.6 43.2 
" style="fill: none; stroke: #ffffff; stroke-width: 1.25; stroke-linejoin: miter; stroke-linecap: square"/>
   </g>
   <g id="line2d_16">
    <defs>
     <path id="m138db360b2" d="M -1.31697 0.001246 
L -4.648642 -1.922502 
L -3.988288 -3.068776 
L -0.654124 -1.145029 
L -0.654124 -5 
L 0.654124 -5 
L 0.654124 -1.145029 
L 3.985796 -3.068776 
L 4.648642 -1.922502 
L 1.314478 0.001246 
L 4.648642 1.924994 
L 3.985796 3.068776 
L 0.654124 1.145029 
L 0.654124 5 
L -0.654124 5 
L -0.654124 1.145029 
L -3.988288 3.068776 
L -4.648642 1.924994 
L -1.31697 0.001246 
z
" style="stroke: #4c72b0"/>
    </defs>
    <g clip-path="url(#pad0f795708)">
     <use xlink:href="#m138db360b2" x="162.002735" y="251.058985" style="fill: #4c72b0; stroke: #4c72b0"/>
     <use xlink:href="#m138db360b2" x="211.040037" y="216.55511" style="fill: #4c72b0; stroke: #4c72b0"/>
     <use xlink:href="#m138db360b2" x="187.12489" y="233.808958" style="fill: #4c72b0; stroke: #4c72b0"/>
     <use xlink:href="#m138db360b2" x="263.101387" y="180.702905" style="fill: #4c72b0; stroke: #4c72b0"/>
     <use xlink:href="#m138db360b2" x="162.750238" y="250.3633" style="fill: #4c72b0; stroke: #4c72b0"/>
     <use xlink:href="#m138db360b2" x="215.679221" y="214.248237" style="fill: #4c72b0; stroke: #4c72b0"/>
     <use xlink:href="#m138db360b2" x="188.673755" y="232.526689" style="fill: #4c72b0; stroke: #4c72b0"/>
     <use xlink:href="#m138db360b2" x="264.177212" y="179.39741" style="fill: #4c72b0; stroke: #4c72b0"/>
     <use xlink:href="#m138db360b2" x="288.239785" y="163.063413" style="fill: #4c72b0; stroke: #4c72b0"/>
     <use xlink:href="#m138db360b2" x="366.241171" y="108.919949" style="fill: #4c72b0; stroke: #4c72b0"/>
     <use xlink:href="#m138db360b2" x="329.956754" y="133.673235" style="fill: #4c72b0; stroke: #4c72b0"/>
     <use xlink:href="#m138db360b2" x="434.335745" y="60.927594" style="fill: #4c72b0; stroke: #4c72b0"/>
     <use xlink:href="#m138db360b2" x="288.33" y="163.17454" style="fill: #4c72b0; stroke: #4c72b0"/>
     <use xlink:href="#m138db360b2" x="367.057628" y="107.419887" style="fill: #4c72b0; stroke: #4c72b0"/>
     <use xlink:href="#m138db360b2" x="330.926851" y="133.197777" style="fill: #4c72b0; stroke: #4c72b0"/>
     <use xlink:href="#m138db360b2" x="435.845455" y="60.428909" style="fill: #4c72b0; stroke: #4c72b0"/>
    </g>
   </g>
   <g id="line2d_17">
    <defs>
     <path id="mbda1ffa49e" d="M -1.31697 0.001246 
L -4.648642 -1.922502 
L -3.988288 -3.068776 
L -0.654124 -1.145029 
L -0.654124 -5 
L 0.654124 -5 
L 0.654124 -1.145029 
L 3.985796 -3.068776 
L 4.648642 -1.922502 
L 1.314478 0.001246 
L 4.648642 1.924994 
L 3.985796 3.068776 
L 0.654124 1.145029 
L 0.654124 5 
L -0.654124 5 
L -0.654124 1.145029 
L -3.988288 3.068776 
L -4.648642 1.924994 
L -1.31697 0.001246 
z
" style="stroke: #dd8452"/>
    </defs>
    <g clip-path="url(#pad0f795708)">
     <use xlink:href="#mbda1ffa49e" x="162.002735" y="263.605214" style="fill: #dd8452; stroke: #dd8452"/>
     <use xlink:href="#mbda1ffa49e" x="211.040037" y="209.571852" style="fill: #dd8452; stroke: #dd8452"/>
     <use xlink:href="#mbda1ffa49e" x="187.12489" y="231.087721" style="fill: #dd8452; stroke: #dd8452"/>
     <use xlink:href="#mbda1ffa49e" x="263.101387" y="177.054359" style="fill: #dd8452; stroke: #dd8452"/>
     <use xlink:href="#mbda1ffa49e" x="162.750238" y="262.611039" style="fill: #dd8452; stroke: #dd8452"/>
     <use xlink:href="#mbda1ffa49e" x="215.679221" y="208.577677" style="fill: #dd8452; stroke: #dd8452"/>
     <use xlink:href="#mbda1ffa49e" x="188.673755" y="230.093546" style="fill: #dd8452; stroke: #dd8452"/>
     <use xlink:href="#mbda1ffa49e" x="264.177212" y="176.060184" style="fill: #dd8452; stroke: #dd8452"/>
     <use xlink:href="#mbda1ffa49e" x="288.239785" y="160.123178" style="fill: #dd8452; stroke: #dd8452"/>
     <use xlink:href="#mbda1ffa49e" x="366.241171" y="106.089816" style="fill: #dd8452; stroke: #dd8452"/>
     <use xlink:href="#mbda1ffa49e" x="329.956754" y="127.605685" style="fill: #dd8452; stroke: #dd8452"/>
     <use xlink:href="#mbda1ffa49e" x="434.335745" y="73.572323" style="fill: #dd8452; stroke: #dd8452"/>
     <use xlink:href="#mbda1ffa49e" x="288.33" y="159.129003" style="fill: #dd8452; stroke: #dd8452"/>
     <use xlink:href="#mbda1ffa49e" x="367.057628" y="105.095641" style="fill: #dd8452; stroke: #dd8452"/>
     <use xlink:href="#mbda1ffa49e" x="330.926851" y="126.61151" style="fill: #dd8452; stroke: #dd8452"/>
     <use xlink:href="#mbda1ffa49e" x="435.845455" y="72.578148" style="fill: #dd8452; stroke: #dd8452"/>
    </g>
   </g>
   <g id="line2d_18">
    <defs>
     <path id="m3f70504775" d="M 0 3 
C 0.795609 3 1.55874 2.683901 2.12132 2.12132 
C 2.683901 1.55874 3 0.795609 3 0 
C 3 -0.795609 2.683901 -1.55874 2.12132 -2.12132 
C 1.55874 -2.683901 0.795609 -3 0 -3 
C -0.795609 -3 -1.55874 -2.683901 -2.12132 -2.12132 
C -2.683901 -1.55874 -3 -0.795609 -3 0 
C -3 0.795609 -2.683901 1.55874 -2.12132 2.12132 
C -1.55874 2.683901 -0.795609 3 0 3 
z
" style="stroke: #55a868; stroke-width: 2"/>
    </defs>
    <g clip-path="url(#pad0f795708)">
     <use xlink:href="#m3f70504775" x="162.002735" y="251.244905" style="fill-opacity: 0; stroke: #55a868; stroke-width: 2"/>
     <use xlink:href="#m3f70504775" x="211.040037" y="214.733509" style="fill-opacity: 0; stroke: #55a868; stroke-width: 2"/>
     <use xlink:href="#m3f70504775" x="187.12489" y="232.562535" style="fill-opacity: 0; stroke: #55a868; stroke-width: 2"/>
     <use xlink:href="#m3f70504775" x="263.101387" y="180.866546" style="fill-opacity: 0; stroke: #55a868; stroke-width: 2"/>
     <use xlink:href="#m3f70504775" x="162.750238" y="251.244905" style="fill-opacity: 0; stroke: #55a868; stroke-width: 2"/>
     <use xlink:href="#m3f70504775" x="215.679221" y="214.733509" style="fill-opacity: 0; stroke: #55a868; stroke-width: 2"/>
     <use xlink:href="#m3f70504775" x="188.673755" y="232.562535" style="fill-opacity: 0; stroke: #55a868; stroke-width: 2"/>
     <use xlink:href="#m3f70504775" x="264.177212" y="180.866546" style="fill-opacity: 0; stroke: #55a868; stroke-width: 2"/>
     <use xlink:href="#m3f70504775" x="288.239785" y="162.231215" style="fill-opacity: 0; stroke: #55a868; stroke-width: 2"/>
     <use xlink:href="#m3f70504775" x="366.241171" y="109.273493" style="fill-opacity: 0; stroke: #55a868; stroke-width: 2"/>
     <use xlink:href="#m3f70504775" x="329.956754" y="134.438146" style="fill-opacity: 0; stroke: #55a868; stroke-width: 2"/>
     <use xlink:href="#m3f70504775" x="434.335745" y="59.379689" style="fill-opacity: 0; stroke: #55a868; stroke-width: 2"/>
     <use xlink:href="#m3f70504775" x="288.33" y="162.231215" style="fill-opacity: 0; stroke: #55a868; stroke-width: 2"/>
     <use xlink:href="#m3f70504775" x="367.057628" y="109.273493" style="fill-opacity: 0; stroke: #55a868; stroke-width: 2"/>
     <use xlink:href="#m3f70504775" x="330.926851" y="134.438146" style="fill-opacity: 0; stroke: #55a868; stroke-width: 2"/>
     <use xlink:href="#m3f70504775" x="435.845455" y="59.379689" style="fill-opacity: 0; stroke: #55a868; stroke-width: 2"/>
    </g>
   </g>
   <g id="line2d_19">
    <defs>
     <path id="m0e0f0834af" d="M 0 3 
C 0.795609 3 1.55874 2.683901 2.12132 2.12132 
C 2.683901 1.55874 3 0.795609 3 0 
C 3 -0.795609 2.683901 -1.55874 2.12132 -2.12132 
C 1.55874 -2.683901 0.795609 -3 0 -3 
C -0.795609 -3 -1.55874 -2.683901 -2.12132 -2.12132 
C -2.683901 -1.55874 -3 -0.795609 -3 0 
C -3 0.795609 -2.683901 1.55874 -2.12132 2.12132 
C -1.55874 2.683901 -0.795609 3 0 3 
z
" style="stroke: #c44e52; stroke-width: 2"/>
    </defs>
    <g clip-path="url(#pad0f795708)">
     <use xlink:href="#m0e0f0834af" x="162.002735" y="250.021009" style="fill-opacity: 0; stroke: #c44e52; stroke-width: 2"/>
     <use xlink:href="#m0e0f0834af" x="211.040037" y="214.052552" style="fill-opacity: 0; stroke: #c44e52; stroke-width: 2"/>
     <use xlink:href="#m0e0f0834af" x="187.12489" y="230.152195" style="fill-opacity: 0; stroke: #c44e52; stroke-width: 2"/>
     <use xlink:href="#m0e0f0834af" x="263.101387" y="187.101175" style="fill-opacity: 0; stroke: #c44e52; stroke-width: 2"/>
     <use xlink:href="#m0e0f0834af" x="162.750238" y="250.021009" style="fill-opacity: 0; stroke: #c44e52; stroke-width: 2"/>
     <use xlink:href="#m0e0f0834af" x="215.679221" y="214.052552" style="fill-opacity: 0; stroke: #c44e52; stroke-width: 2"/>
     <use xlink:href="#m0e0f0834af" x="188.673755" y="230.152195" style="fill-opacity: 0; stroke: #c44e52; stroke-width: 2"/>
     <use xlink:href="#m0e0f0834af" x="264.177212" y="187.101175" style="fill-opacity: 0; stroke: #c44e52; stroke-width: 2"/>
     <use xlink:href="#m0e0f0834af" x="288.239785" y="169.149051" style="fill-opacity: 0; stroke: #c44e52; stroke-width: 2"/>
     <use xlink:href="#m0e0f0834af" x="366.241171" y="104.352464" style="fill-opacity: 0; stroke: #c44e52; stroke-width: 2"/>
     <use xlink:href="#m0e0f0834af" x="329.956754" y="133.355708" style="fill-opacity: 0; stroke: #c44e52; stroke-width: 2"/>
     <use xlink:href="#m0e0f0834af" x="434.335745" y="55.8" style="fill-opacity: 0; stroke: #c44e52; stroke-width: 2"/>
     <use xlink:href="#m0e0f0834af" x="288.33" y="169.149051" style="fill-opacity: 0; stroke: #c44e52; stroke-width: 2"/>
     <use xlink:href="#m0e0f0834af" x="367.057628" y="104.352464" style="fill-opacity: 0; stroke: #c44e52; stroke-width: 2"/>
     <use xlink:href="#m0e0f0834af" x="330.926851" y="133.355708" style="fill-opacity: 0; stroke: #c44e52; stroke-width: 2"/>
     <use xlink:href="#m0e0f0834af" x="435.845455" y="55.8" style="fill-opacity: 0; stroke: #c44e52; stroke-width: 2"/>
    </g>
   </g>
   <g id="legend_1">
    <g id="patch_7">
     <path d="M 70.7 136.100156 
L 321.94 136.100156 
Q 324.14 136.100156 324.14 133.900156 
L 324.14 50.9 
Q 324.14 48.7 321.94 48.7 
L 70.7 48.7 
Q 68.5 48.7 68.5 50.9 
L 68.5 133.900156 
Q 68.5 136.100156 70.7 136.100156 
z
" style="fill: #eaeaf2; opacity: 0.8; stroke: #cccccc; stroke-linejoin: miter"/>
    </g>
    <g id="line2d_20">
     <path d="M 72.9 57.608281 
L 83.9 57.608281 
L 94.9 57.608281 
" style="fill: none; stroke-dasharray: 9.6,2.4,1.5,2.4; stroke-dashoffset: 0; stroke: #808080; stroke-width: 1.5"/>
    </g>
    <g id="text_17">
     <!-- $y=x$ -->
     <g style="fill: #262626" transform="translate(103.7 61.458281) scale(0.11 -0.11)">
      <defs>
       <path id="DejaVuSans-Oblique-79" d="M 1588 -325 
Q 1188 -997 936 -1164 
Q 684 -1331 294 -1331 
L -159 -1331 
L -63 -850 
L 269 -850 
Q 509 -850 678 -719 
Q 847 -588 1056 -206 
L 1234 128 
L 459 3500 
L 1069 3500 
L 1650 819 
L 3256 3500 
L 3859 3500 
L 1588 -325 
z
" transform="scale(0.015625)"/>
       <path id="DejaVuSans-3d" d="M 678 2906 
L 4684 2906 
L 4684 2381 
L 678 2381 
L 678 2906 
z
M 678 1631 
L 4684 1631 
L 4684 1100 
L 678 1100 
L 678 1631 
z
" transform="scale(0.015625)"/>
       <path id="DejaVuSans-Oblique-78" d="M 3841 3500 
L 2234 1784 
L 3219 0 
L 2559 0 
L 1819 1388 
L 531 0 
L -166 0 
L 1556 1844 
L 641 3500 
L 1300 3500 
L 1972 2234 
L 3144 3500 
L 3841 3500 
z
" transform="scale(0.015625)"/>
      </defs>
      <use xlink:href="#DejaVuSans-Oblique-79" transform="translate(0 0.3125)"/>
      <use xlink:href="#DejaVuSans-3d" transform="translate(78.662109 0.3125)"/>
      <use xlink:href="#DejaVuSans-Oblique-78" transform="translate(181.933594 0.3125)"/>
     </g>
    </g>
    <g id="line2d_21">
     <g>
      <use xlink:href="#m138db360b2" x="83.9" y="73.776562" style="fill: #4c72b0; stroke: #4c72b0"/>
     </g>
    </g>
    <g id="text_18">
     <!-- Linear $R^2=100.00$% -->
     <g style="fill: #262626" transform="translate(103.7 77.626562) scale(0.11 -0.11)">
      <defs>
       <path id="DejaVuSans-4c" d="M 628 4666 
L 1259 4666 
L 1259 531 
L 3531 531 
L 3531 0 
L 628 0 
L 628 4666 
z
" transform="scale(0.015625)"/>
       <path id="DejaVuSans-6e" d="M 3513 2113 
L 3513 0 
L 2938 0 
L 2938 2094 
Q 2938 2591 2744 2837 
Q 2550 3084 2163 3084 
Q 1697 3084 1428 2787 
Q 1159 2491 1159 1978 
L 1159 0 
L 581 0 
L 581 3500 
L 1159 3500 
L 1159 2956 
Q 1366 3272 1645 3428 
Q 1925 3584 2291 3584 
Q 2894 3584 3203 3211 
Q 3513 2838 3513 2113 
z
" transform="scale(0.015625)"/>
       <path id="DejaVuSans-Oblique-52" d="M 1613 4147 
L 1294 2491 
L 2106 2491 
Q 2584 2491 2879 2755 
Q 3175 3019 3175 3444 
Q 3175 3784 2976 3965 
Q 2778 4147 2406 4147 
L 1613 4147 
z
M 2772 2241 
Q 2972 2194 3105 2009 
Q 3238 1825 3413 1275 
L 3809 0 
L 3144 0 
L 2778 1197 
Q 2638 1659 2453 1815 
Q 2269 1972 1888 1972 
L 1191 1972 
L 806 0 
L 172 0 
L 1081 4666 
L 2503 4666 
Q 3150 4666 3495 4373 
Q 3841 4081 3841 3531 
Q 3841 3044 3547 2687 
Q 3253 2331 2772 2241 
z
" transform="scale(0.015625)"/>
       <path id="DejaVuSans-2e" d="M 684 794 
L 1344 794 
L 1344 0 
L 684 0 
L 684 794 
z
" transform="scale(0.015625)"/>
       <path id="DejaVuSans-25" d="M 4653 2053 
Q 4381 2053 4226 1822 
Q 4072 1591 4072 1178 
Q 4072 772 4226 539 
Q 4381 306 4653 306 
Q 4919 306 5073 539 
Q 5228 772 5228 1178 
Q 5228 1588 5073 1820 
Q 4919 2053 4653 2053 
z
M 4653 2450 
Q 5147 2450 5437 2106 
Q 5728 1763 5728 1178 
Q 5728 594 5436 251 
Q 5144 -91 4653 -91 
Q 4153 -91 3862 251 
Q 3572 594 3572 1178 
Q 3572 1766 3864 2108 
Q 4156 2450 4653 2450 
z
M 1428 4353 
Q 1159 4353 1004 4120 
Q 850 3888 850 3481 
Q 850 3069 1003 2837 
Q 1156 2606 1428 2606 
Q 1700 2606 1854 2837 
Q 2009 3069 2009 3481 
Q 2009 3884 1853 4118 
Q 1697 4353 1428 4353 
z
M 4250 4750 
L 4750 4750 
L 1831 -91 
L 1331 -91 
L 4250 4750 
z
M 1428 4750 
Q 1922 4750 2215 4408 
Q 2509 4066 2509 3481 
Q 2509 2891 2217 2550 
Q 1925 2209 1428 2209 
Q 931 2209 642 2551 
Q 353 2894 353 3481 
Q 353 4063 643 4406 
Q 934 4750 1428 4750 
z
" transform="scale(0.015625)"/>
      </defs>
      <use xlink:href="#DejaVuSans-4c" transform="translate(0 0.765625)"/>
      <use xlink:href="#DejaVuSans-69" transform="translate(55.712891 0.765625)"/>
      <use xlink:href="#DejaVuSans-6e" transform="translate(83.496094 0.765625)"/>
      <use xlink:href="#DejaVuSans-65" transform="translate(146.875 0.765625)"/>
      <use xlink:href="#DejaVuSans-61" transform="translate(208.398438 0.765625)"/>
      <use xlink:href="#DejaVuSans-72" transform="translate(269.677734 0.765625)"/>
      <use xlink:href="#DejaVuSans-20" transform="translate(310.791016 0.765625)"/>
      <use xlink:href="#DejaVuSans-Oblique-52" transform="translate(342.578125 0.765625)"/>
      <use xlink:href="#DejaVuSans-32" transform="translate(419.077318 39.046875) scale(0.7)"/>
      <use xlink:href="#DejaVuSans-3d" transform="translate(485.830247 0.765625)"/>
      <use xlink:href="#DejaVuSans-31" transform="translate(589.101732 0.765625)"/>
      <use xlink:href="#DejaVuSans-30" transform="translate(652.724779 0.765625)"/>
      <use xlink:href="#DejaVuSans-30" transform="translate(716.347826 0.765625)"/>
      <use xlink:href="#DejaVuSans-2e" transform="translate(779.970872 0.765625)"/>
      <use xlink:href="#DejaVuSans-30" transform="translate(811.757982 0.765625)"/>
      <use xlink:href="#DejaVuSans-30" transform="translate(875.381029 0.765625)"/>
      <use xlink:href="#DejaVuSans-25" transform="translate(939.004076 0.765625)"/>
     </g>
    </g>
    <g id="line2d_22">
     <g>
      <use xlink:href="#mbda1ffa49e" x="83.9" y="89.9225" style="fill: #dd8452; stroke: #dd8452"/>
     </g>
    </g>
    <g id="text_19">
     <!-- Linear : main effects $R^2=99.28$% -->
     <g style="fill: #262626" transform="translate(103.7 93.7725) scale(0.11 -0.11)">
      <defs>
       <path id="DejaVuSans-66" d="M 2375 4863 
L 2375 4384 
L 1825 4384 
Q 1516 4384 1395 4259 
Q 1275 4134 1275 3809 
L 1275 3500 
L 2222 3500 
L 2222 3053 
L 1275 3053 
L 1275 0 
L 697 0 
L 697 3053 
L 147 3053 
L 147 3500 
L 697 3500 
L 697 3744 
Q 697 4328 969 4595 
Q 1241 4863 1831 4863 
L 2375 4863 
z
" transform="scale(0.015625)"/>
       <path id="DejaVuSans-74" d="M 1172 4494 
L 1172 3500 
L 2356 3500 
L 2356 3053 
L 1172 3053 
L 1172 1153 
Q 1172 725 1289 603 
Q 1406 481 1766 481 
L 2356 481 
L 2356 0 
L 1766 0 
Q 1100 0 847 248 
Q 594 497 594 1153 
L 594 3053 
L 172 3053 
L 172 3500 
L 594 3500 
L 594 4494 
L 1172 4494 
z
" transform="scale(0.015625)"/>
       <path id="DejaVuSans-73" d="M 2834 3397 
L 2834 2853 
Q 2591 2978 2328 3040 
Q 2066 3103 1784 3103 
Q 1356 3103 1142 2972 
Q 928 2841 928 2578 
Q 928 2378 1081 2264 
Q 1234 2150 1697 2047 
L 1894 2003 
Q 2506 1872 2764 1633 
Q 3022 1394 3022 966 
Q 3022 478 2636 193 
Q 2250 -91 1575 -91 
Q 1294 -91 989 -36 
Q 684 19 347 128 
L 347 722 
Q 666 556 975 473 
Q 1284 391 1588 391 
Q 1994 391 2212 530 
Q 2431 669 2431 922 
Q 2431 1156 2273 1281 
Q 2116 1406 1581 1522 
L 1381 1569 
Q 847 1681 609 1914 
Q 372 2147 372 2553 
Q 372 3047 722 3315 
Q 1072 3584 1716 3584 
Q 2034 3584 2315 3537 
Q 2597 3491 2834 3397 
z
" transform="scale(0.015625)"/>
       <path id="DejaVuSans-39" d="M 703 97 
L 703 672 
Q 941 559 1184 500 
Q 1428 441 1663 441 
Q 2288 441 2617 861 
Q 2947 1281 2994 2138 
Q 2813 1869 2534 1725 
Q 2256 1581 1919 1581 
Q 1219 1581 811 2004 
Q 403 2428 403 3163 
Q 403 3881 828 4315 
Q 1253 4750 1959 4750 
Q 2769 4750 3195 4129 
Q 3622 3509 3622 2328 
Q 3622 1225 3098 567 
Q 2575 -91 1691 -91 
Q 1453 -91 1209 -44 
Q 966 3 703 97 
z
M 1959 2075 
Q 2384 2075 2632 2365 
Q 2881 2656 2881 3163 
Q 2881 3666 2632 3958 
Q 2384 4250 1959 4250 
Q 1534 4250 1286 3958 
Q 1038 3666 1038 3163 
Q 1038 2656 1286 2365 
Q 1534 2075 1959 2075 
z
" transform="scale(0.015625)"/>
       <path id="DejaVuSans-38" d="M 2034 2216 
Q 1584 2216 1326 1975 
Q 1069 1734 1069 1313 
Q 1069 891 1326 650 
Q 1584 409 2034 409 
Q 2484 409 2743 651 
Q 3003 894 3003 1313 
Q 3003 1734 2745 1975 
Q 2488 2216 2034 2216 
z
M 1403 2484 
Q 997 2584 770 2862 
Q 544 3141 544 3541 
Q 544 4100 942 4425 
Q 1341 4750 2034 4750 
Q 2731 4750 3128 4425 
Q 3525 4100 3525 3541 
Q 3525 3141 3298 2862 
Q 3072 2584 2669 2484 
Q 3125 2378 3379 2068 
Q 3634 1759 3634 1313 
Q 3634 634 3220 271 
Q 2806 -91 2034 -91 
Q 1263 -91 848 271 
Q 434 634 434 1313 
Q 434 1759 690 2068 
Q 947 2378 1403 2484 
z
M 1172 3481 
Q 1172 3119 1398 2916 
Q 1625 2713 2034 2713 
Q 2441 2713 2670 2916 
Q 2900 3119 2900 3481 
Q 2900 3844 2670 4047 
Q 2441 4250 2034 4250 
Q 1625 4250 1398 4047 
Q 1172 3844 1172 3481 
z
" transform="scale(0.015625)"/>
      </defs>
      <use xlink:href="#DejaVuSans-4c" transform="translate(0 0.765625)"/>
      <use xlink:href="#DejaVuSans-69" transform="translate(55.712891 0.765625)"/>
      <use xlink:href="#DejaVuSans-6e" transform="translate(83.496094 0.765625)"/>
      <use xlink:href="#DejaVuSans-65" transform="translate(146.875 0.765625)"/>
      <use xlink:href="#DejaVuSans-61" transform="translate(208.398438 0.765625)"/>
      <use xlink:href="#DejaVuSans-72" transform="translate(269.677734 0.765625)"/>
      <use xlink:href="#DejaVuSans-20" transform="translate(310.791016 0.765625)"/>
      <use xlink:href="#DejaVuSans-3a" transform="translate(342.578125 0.765625)"/>
      <use xlink:href="#DejaVuSans-20" transform="translate(376.269531 0.765625)"/>
      <use xlink:href="#DejaVuSans-6d" transform="translate(408.056641 0.765625)"/>
      <use xlink:href="#DejaVuSans-61" transform="translate(505.46875 0.765625)"/>
      <use xlink:href="#DejaVuSans-69" transform="translate(566.748047 0.765625)"/>
      <use xlink:href="#DejaVuSans-6e" transform="translate(594.53125 0.765625)"/>
      <use xlink:href="#DejaVuSans-20" transform="translate(657.910156 0.765625)"/>
      <use xlink:href="#DejaVuSans-65" transform="translate(689.697266 0.765625)"/>
      <use xlink:href="#DejaVuSans-66" transform="translate(751.220703 0.765625)"/>
      <use xlink:href="#DejaVuSans-66" transform="translate(786.425781 0.765625)"/>
      <use xlink:href="#DejaVuSans-65" transform="translate(821.630859 0.765625)"/>
      <use xlink:href="#DejaVuSans-63" transform="translate(883.154297 0.765625)"/>
      <use xlink:href="#DejaVuSans-74" transform="translate(938.134766 0.765625)"/>
      <use xlink:href="#DejaVuSans-73" transform="translate(977.34375 0.765625)"/>
      <use xlink:href="#DejaVuSans-20" transform="translate(1029.443359 0.765625)"/>
      <use xlink:href="#DejaVuSans-Oblique-52" transform="translate(1061.230469 0.765625)"/>
      <use xlink:href="#DejaVuSans-32" transform="translate(1137.729661 39.046875) scale(0.7)"/>
      <use xlink:href="#DejaVuSans-3d" transform="translate(1204.482591 0.765625)"/>
      <use xlink:href="#DejaVuSans-39" transform="translate(1307.754076 0.765625)"/>
      <use xlink:href="#DejaVuSans-39" transform="translate(1371.377122 0.765625)"/>
      <use xlink:href="#DejaVuSans-2e" transform="translate(1435.000169 0.765625)"/>
      <use xlink:href="#DejaVuSans-32" transform="translate(1461.287279 0.765625)"/>
      <use xlink:href="#DejaVuSans-38" transform="translate(1524.910326 0.765625)"/>
      <use xlink:href="#DejaVuSans-25" transform="translate(1588.533372 0.765625)"/>
     </g>
    </g>
    <g id="line2d_23">
     <g>
      <use xlink:href="#m3f70504775" x="83.9" y="107.720156" style="fill-opacity: 0; stroke: #55a868; stroke-width: 2"/>
     </g>
    </g>
    <g id="text_20">
     <!-- Logarithmic $R^2=99.99$% -->
     <g style="fill: #262626" transform="translate(103.7 111.570156) scale(0.11 -0.11)">
      <defs>
       <path id="DejaVuSans-67" d="M 2906 1791 
Q 2906 2416 2648 2759 
Q 2391 3103 1925 3103 
Q 1463 3103 1205 2759 
Q 947 2416 947 1791 
Q 947 1169 1205 825 
Q 1463 481 1925 481 
Q 2391 481 2648 825 
Q 2906 1169 2906 1791 
z
M 3481 434 
Q 3481 -459 3084 -895 
Q 2688 -1331 1869 -1331 
Q 1566 -1331 1297 -1286 
Q 1028 -1241 775 -1147 
L 775 -588 
Q 1028 -725 1275 -790 
Q 1522 -856 1778 -856 
Q 2344 -856 2625 -561 
Q 2906 -266 2906 331 
L 2906 616 
Q 2728 306 2450 153 
Q 2172 0 1784 0 
Q 1141 0 747 490 
Q 353 981 353 1791 
Q 353 2603 747 3093 
Q 1141 3584 1784 3584 
Q 2172 3584 2450 3431 
Q 2728 3278 2906 2969 
L 2906 3500 
L 3481 3500 
L 3481 434 
z
" transform="scale(0.015625)"/>
       <path id="DejaVuSans-68" d="M 3513 2113 
L 3513 0 
L 2938 0 
L 2938 2094 
Q 2938 2591 2744 2837 
Q 2550 3084 2163 3084 
Q 1697 3084 1428 2787 
Q 1159 2491 1159 1978 
L 1159 0 
L 581 0 
L 581 4863 
L 1159 4863 
L 1159 2956 
Q 1366 3272 1645 3428 
Q 1925 3584 2291 3584 
Q 2894 3584 3203 3211 
Q 3513 2838 3513 2113 
z
" transform="scale(0.015625)"/>
      </defs>
      <use xlink:href="#DejaVuSans-4c" transform="translate(0 0.765625)"/>
      <use xlink:href="#DejaVuSans-6f" transform="translate(55.712891 0.765625)"/>
      <use xlink:href="#DejaVuSans-67" transform="translate(116.894531 0.765625)"/>
      <use xlink:href="#DejaVuSans-61" transform="translate(180.371094 0.765625)"/>
      <use xlink:href="#DejaVuSans-72" transform="translate(241.650391 0.765625)"/>
      <use xlink:href="#DejaVuSans-69" transform="translate(282.763672 0.765625)"/>
      <use xlink:href="#DejaVuSans-74" transform="translate(310.546875 0.765625)"/>
      <use xlink:href="#DejaVuSans-68" transform="translate(349.755859 0.765625)"/>
      <use xlink:href="#DejaVuSans-6d" transform="translate(413.134766 0.765625)"/>
      <use xlink:href="#DejaVuSans-69" transform="translate(510.546875 0.765625)"/>
      <use xlink:href="#DejaVuSans-63" transform="translate(538.330078 0.765625)"/>
      <use xlink:href="#DejaVuSans-20" transform="translate(593.310547 0.765625)"/>
      <use xlink:href="#DejaVuSans-Oblique-52" transform="translate(625.097656 0.765625)"/>
      <use xlink:href="#DejaVuSans-32" transform="translate(701.596849 39.046875) scale(0.7)"/>
      <use xlink:href="#DejaVuSans-3d" transform="translate(768.349779 0.765625)"/>
      <use xlink:href="#DejaVuSans-39" transform="translate(871.621263 0.765625)"/>
      <use xlink:href="#DejaVuSans-39" transform="translate(935.24431 0.765625)"/>
      <use xlink:href="#DejaVuSans-2e" transform="translate(998.867357 0.765625)"/>
      <use xlink:href="#DejaVuSans-39" transform="translate(1030.654466 0.765625)"/>
      <use xlink:href="#DejaVuSans-39" transform="translate(1094.277513 0.765625)"/>
      <use xlink:href="#DejaVuSans-25" transform="translate(1157.90056 0.765625)"/>
     </g>
    </g>
    <g id="line2d_24">
     <g>
      <use xlink:href="#m0e0f0834af" x="83.9" y="125.540156" style="fill-opacity: 0; stroke: #c44e52; stroke-width: 2"/>
     </g>
    </g>
    <g id="text_21">
     <!-- Logarithmic : main effects $R^2=99.79$% -->
     <g style="fill: #262626" transform="translate(103.7 129.390156) scale(0.11 -0.11)">
      <defs>
       <path id="DejaVuSans-37" d="M 525 4666 
L 3525 4666 
L 3525 4397 
L 1831 0 
L 1172 0 
L 2766 4134 
L 525 4134 
L 525 4666 
z
" transform="scale(0.015625)"/>
      </defs>
      <use xlink:href="#DejaVuSans-4c" transform="translate(0 0.765625)"/>
      <use xlink:href="#DejaVuSans-6f" transform="translate(55.712891 0.765625)"/>
      <use xlink:href="#DejaVuSans-67" transform="translate(116.894531 0.765625)"/>
      <use xlink:href="#DejaVuSans-61" transform="translate(180.371094 0.765625)"/>
      <use xlink:href="#DejaVuSans-72" transform="translate(241.650391 0.765625)"/>
      <use xlink:href="#DejaVuSans-69" transform="translate(282.763672 0.765625)"/>
      <use xlink:href="#DejaVuSans-74" transform="translate(310.546875 0.765625)"/>
      <use xlink:href="#DejaVuSans-68" transform="translate(349.755859 0.765625)"/>
      <use xlink:href="#DejaVuSans-6d" transform="translate(413.134766 0.765625)"/>
      <use xlink:href="#DejaVuSans-69" transform="translate(510.546875 0.765625)"/>
      <use xlink:href="#DejaVuSans-63" transform="translate(538.330078 0.765625)"/>
      <use xlink:href="#DejaVuSans-20" transform="translate(593.310547 0.765625)"/>
      <use xlink:href="#DejaVuSans-3a" transform="translate(625.097656 0.765625)"/>
      <use xlink:href="#DejaVuSans-20" transform="translate(658.789062 0.765625)"/>
      <use xlink:href="#DejaVuSans-6d" transform="translate(690.576172 0.765625)"/>
      <use xlink:href="#DejaVuSans-61" transform="translate(787.988281 0.765625)"/>
      <use xlink:href="#DejaVuSans-69" transform="translate(849.267578 0.765625)"/>
      <use xlink:href="#DejaVuSans-6e" transform="translate(877.050781 0.765625)"/>
      <use xlink:href="#DejaVuSans-20" transform="translate(940.429688 0.765625)"/>
      <use xlink:href="#DejaVuSans-65" transform="translate(972.216797 0.765625)"/>
      <use xlink:href="#DejaVuSans-66" transform="translate(1033.740234 0.765625)"/>
      <use xlink:href="#DejaVuSans-66" transform="translate(1068.945312 0.765625)"/>
      <use xlink:href="#DejaVuSans-65" transform="translate(1104.150391 0.765625)"/>
      <use xlink:href="#DejaVuSans-63" transform="translate(1165.673828 0.765625)"/>
      <use xlink:href="#DejaVuSans-74" transform="translate(1220.654297 0.765625)"/>
      <use xlink:href="#DejaVuSans-73" transform="translate(1259.863281 0.765625)"/>
      <use xlink:href="#DejaVuSans-20" transform="translate(1311.962891 0.765625)"/>
      <use xlink:href="#DejaVuSans-Oblique-52" transform="translate(1343.75 0.765625)"/>
      <use xlink:href="#DejaVuSans-32" transform="translate(1420.249193 39.046875) scale(0.7)"/>
      <use xlink:href="#DejaVuSans-3d" transform="translate(1487.002122 0.765625)"/>
      <use xlink:href="#DejaVuSans-39" transform="translate(1590.273607 0.765625)"/>
      <use xlink:href="#DejaVuSans-39" transform="translate(1653.896654 0.765625)"/>
      <use xlink:href="#DejaVuSans-2e" transform="translate(1717.519701 0.765625)"/>
      <use xlink:href="#DejaVuSans-37" transform="translate(1741.55681 0.765625)"/>
      <use xlink:href="#DejaVuSans-39" transform="translate(1805.179857 0.765625)"/>
      <use xlink:href="#DejaVuSans-25" transform="translate(1868.802904 0.765625)"/>
     </g>
    </g>
   </g>
  </g>
 </g>
 <defs>
  <clipPath id="pad0f795708">
   <rect x="63" y="43.2" width="390.6" height="277.2"/>
  </clipPath>
 </defs>
</svg>
